<svg xmlns="http://www.w3.org/2000/svg" viewBox="0 0 700 900"><defs><linearGradient id="bg" x1="0" y1="0" x2="1" y2="1"><stop stop-color="#f8dfe0"/><stop offset="1" stop-color="#efc8ca"/></linearGradient><linearGradient id="wood" x1="0" y1="0" x2="1" y2="0"><stop stop-color="#7e4328"/><stop offset=".5" stop-color="#d49a6e"/><stop offset="1" stop-color="#70351f"/></linearGradient></defs><rect width="700" height="900" fill="url(#bg)"/><ellipse cx="350" cy="750" rx="230" ry="35" fill="#c38d8d" opacity=".22"/><g transform="rotate(-17 350 450)"><rect x="205" y="190" width="48" height="520" rx="18" fill="url(#wood)"/><path d="M205 190h48l-24-82z" fill="#5d2b1d"/><rect x="205" y="230" width="48" height="55" fill="#3a2019"/><rect x="205" y="300" width="48" height="7" fill="#f0c7b0" opacity=".6"/><text x="229" y="570" fill="#fbe9df" font-size="18" font-family="Georgia" text-anchor="middle" transform="rotate(90 229 570)">Reedah's</text></g><g transform="rotate(11 450 450)"><rect x="410" y="155" width="48" height="555" rx="18" fill="url(#wood)"/><path d="M410 155h48l-24-85z" fill="#542619"/><rect x="410" y="195" width="48" height="58" fill="#432018"/><text x="434" y="565" fill="#fbe9df" font-size="18" font-family="Georgia" text-anchor="middle" transform="rotate(90 434 565)">Reedah's</text></g></svg>